<svg width="47" height="93" viewBox="0 0 47 93" fill="none" xmlns="http://www.w3.org/2000/svg">
<mask id="path-1-outside-1_124_58" maskUnits="userSpaceOnUse" x="3.38672" y="12" width="42" height="67" fill="black">
<rect fill="white" x="3.38672" y="12" width="42" height="67"/>
<path d="M7.21652 61.2297C7.5241 65.5359 9.17482 69.0731 12.1687 71.8414C15.142 74.6097 19.0689 75.9938 23.9493 75.9938C27.1482 75.9938 30.0087 75.3787 32.5309 74.1483C35.0532 72.918 37.0422 71.2262 38.4981 69.0731C39.954 66.9405 40.682 64.4901 40.682 61.7218C40.682 60.1223 40.4154 58.6459 39.8823 57.2925C39.3491 55.9392 38.5391 54.6986 37.4523 53.5707C36.345 52.4634 34.9609 51.4586 33.2999 50.5564C31.6184 49.6746 29.6499 48.8852 27.3942 48.188L20.2582 45.9733C17.5309 45.1326 15.1728 44.1893 13.1837 43.1435C11.1946 42.0977 9.55417 40.9186 8.26231 39.6063C6.94994 38.3144 5.97591 36.8688 5.34023 35.2693C4.70455 33.6904 4.38672 31.9269 4.38672 29.9788C4.38672 26.6979 5.22745 23.7758 6.90893 21.2126C8.59041 18.6493 10.9383 16.6398 13.9527 15.1839C16.967 13.7279 20.4633 13 24.4414 13C28.276 13 31.6287 13.6664 34.4995 14.9993C37.3703 16.3527 39.6465 18.2085 41.3279 20.5666C42.9889 22.9453 43.9219 25.6726 44.127 28.7485H42.1584C41.9534 26.0417 41.1024 23.6528 39.6054 21.5817C38.1085 19.5106 36.0785 17.8906 33.5152 16.7218C30.9315 15.553 27.9069 14.9686 24.4414 14.9686C20.8324 14.9686 17.6745 15.594 14.9677 16.8448C12.2404 18.1162 10.1283 19.8797 8.63142 22.1353C7.11399 24.391 6.35527 27.0055 6.35527 29.9788C6.35527 32.2344 6.84742 34.2133 7.8317 35.9152C8.81597 37.6377 10.3642 39.1551 12.4763 40.4675C14.5884 41.7799 17.3464 42.959 20.7504 44.0048L27.8864 46.2194C32.8283 47.7778 36.5296 49.8387 38.9903 52.4019C41.4305 54.9651 42.6506 58.0718 42.6506 61.7218C42.6506 64.8182 41.8406 67.5865 40.2206 70.0266C38.6007 72.4873 36.386 74.4251 33.5767 75.84C30.7469 77.2549 27.5378 77.9624 23.9493 77.9624C20.3402 77.9624 17.1721 77.2447 14.4448 75.8093C11.7175 74.3739 9.55418 72.3951 7.95473 69.8729C6.35527 67.3506 5.45302 64.4696 5.24796 61.2297H7.21652Z"/>
</mask>
<path d="M7.21652 61.2297C7.5241 65.5359 9.17482 69.0731 12.1687 71.8414C15.142 74.6097 19.0689 75.9938 23.9493 75.9938C27.1482 75.9938 30.0087 75.3787 32.5309 74.1483C35.0532 72.918 37.0422 71.2262 38.4981 69.0731C39.954 66.9405 40.682 64.4901 40.682 61.7218C40.682 60.1223 40.4154 58.6459 39.8823 57.2925C39.3491 55.9392 38.5391 54.6986 37.4523 53.5707C36.345 52.4634 34.9609 51.4586 33.2999 50.5564C31.6184 49.6746 29.6499 48.8852 27.3942 48.188L20.2582 45.9733C17.5309 45.1326 15.1728 44.1893 13.1837 43.1435C11.1946 42.0977 9.55417 40.9186 8.26231 39.6063C6.94994 38.3144 5.97591 36.8688 5.34023 35.2693C4.70455 33.6904 4.38672 31.9269 4.38672 29.9788C4.38672 26.6979 5.22745 23.7758 6.90893 21.2126C8.59041 18.6493 10.9383 16.6398 13.9527 15.1839C16.967 13.7279 20.4633 13 24.4414 13C28.276 13 31.6287 13.6664 34.4995 14.9993C37.3703 16.3527 39.6465 18.2085 41.3279 20.5666C42.9889 22.9453 43.9219 25.6726 44.127 28.7485H42.1584C41.9534 26.0417 41.1024 23.6528 39.6054 21.5817C38.1085 19.5106 36.0785 17.8906 33.5152 16.7218C30.9315 15.553 27.9069 14.9686 24.4414 14.9686C20.8324 14.9686 17.6745 15.594 14.9677 16.8448C12.2404 18.1162 10.1283 19.8797 8.63142 22.1353C7.11399 24.391 6.35527 27.0055 6.35527 29.9788C6.35527 32.2344 6.84742 34.2133 7.8317 35.9152C8.81597 37.6377 10.3642 39.1551 12.4763 40.4675C14.5884 41.7799 17.3464 42.959 20.7504 44.0048L27.8864 46.2194C32.8283 47.7778 36.5296 49.8387 38.9903 52.4019C41.4305 54.9651 42.6506 58.0718 42.6506 61.7218C42.6506 64.8182 41.8406 67.5865 40.2206 70.0266C38.6007 72.4873 36.386 74.4251 33.5767 75.84C30.7469 77.2549 27.5378 77.9624 23.9493 77.9624C20.3402 77.9624 17.1721 77.2447 14.4448 75.8093C11.7175 74.3739 9.55418 72.3951 7.95473 69.8729C6.35527 67.3506 5.45302 64.4696 5.24796 61.2297H7.21652Z" fill="black"/>
<path d="M7.21652 61.2297C7.5241 65.5359 9.17482 69.0731 12.1687 71.8414C15.142 74.6097 19.0689 75.9938 23.9493 75.9938C27.1482 75.9938 30.0087 75.3787 32.5309 74.1483C35.0532 72.918 37.0422 71.2262 38.4981 69.0731C39.954 66.9405 40.682 64.4901 40.682 61.7218C40.682 60.1223 40.4154 58.6459 39.8823 57.2925C39.3491 55.9392 38.5391 54.6986 37.4523 53.5707C36.345 52.4634 34.9609 51.4586 33.2999 50.5564C31.6184 49.6746 29.6499 48.8852 27.3942 48.188L20.2582 45.9733C17.5309 45.1326 15.1728 44.1893 13.1837 43.1435C11.1946 42.0977 9.55417 40.9186 8.26231 39.6063C6.94994 38.3144 5.97591 36.8688 5.34023 35.2693C4.70455 33.6904 4.38672 31.9269 4.38672 29.9788C4.38672 26.6979 5.22745 23.7758 6.90893 21.2126C8.59041 18.6493 10.9383 16.6398 13.9527 15.1839C16.967 13.7279 20.4633 13 24.4414 13C28.276 13 31.6287 13.6664 34.4995 14.9993C37.3703 16.3527 39.6465 18.2085 41.3279 20.5666C42.9889 22.9453 43.9219 25.6726 44.127 28.7485H42.1584C41.9534 26.0417 41.1024 23.6528 39.6054 21.5817C38.1085 19.5106 36.0785 17.8906 33.5152 16.7218C30.9315 15.553 27.9069 14.9686 24.4414 14.9686C20.8324 14.9686 17.6745 15.594 14.9677 16.8448C12.2404 18.1162 10.1283 19.8797 8.63142 22.1353C7.11399 24.391 6.35527 27.0055 6.35527 29.9788C6.35527 32.2344 6.84742 34.2133 7.8317 35.9152C8.81597 37.6377 10.3642 39.1551 12.4763 40.4675C14.5884 41.7799 17.3464 42.959 20.7504 44.0048L27.8864 46.2194C32.8283 47.7778 36.5296 49.8387 38.9903 52.4019C41.4305 54.9651 42.6506 58.0718 42.6506 61.7218C42.6506 64.8182 41.8406 67.5865 40.2206 70.0266C38.6007 72.4873 36.386 74.4251 33.5767 75.84C30.7469 77.2549 27.5378 77.9624 23.9493 77.9624C20.3402 77.9624 17.1721 77.2447 14.4448 75.8093C11.7175 74.3739 9.55418 72.3951 7.95473 69.8729C6.35527 67.3506 5.45302 64.4696 5.24796 61.2297H7.21652Z" stroke="black" stroke-linejoin="round" mask="url(#path-1-outside-1_124_58)"/>
<path fill-rule="evenodd" clip-rule="evenodd" d="M46.5576 41.1266C46.5368 41.6648 46.1736 42.1291 45.6563 42.2789L6.73262 53.5521L23.1341 57.7866C23.686 57.9291 24.0716 58.4269 24.0716 58.9969L24.0716 91C24.0716 91.6904 23.512 92.25 22.8216 92.25C22.1312 92.25 21.5716 91.6904 21.5716 91L21.5716 59.9651L1.68784 54.8316C1.14251 54.6908 0.758684 54.2027 0.750448 53.6396C0.742212 53.0764 1.1116 52.5773 1.65258 52.4206L41.3451 40.9248L22.3821 33.802C21.8945 33.6189 21.5716 33.1527 21.5716 32.6319L21.5716 2C21.5716 1.30964 22.1312 0.749999 22.8216 0.749999C23.512 0.749999 24.0716 1.30964 24.0716 2L24.0716 31.7661L45.7481 39.9081C46.2523 40.0974 46.5785 40.5884 46.5576 41.1266Z" fill="black"/>
</svg>
