<svg width="31" height="60" viewBox="0 0 31 60" fill="none" xmlns="http://www.w3.org/2000/svg">
<path d="M4.39912 39.5989C4.59957 42.4052 5.67532 44.7104 7.62636 46.5145C9.56405 48.3185 12.1231 49.2205 15.3036 49.2205C17.3883 49.2205 19.2525 48.8196 20.8962 48.0178C22.5398 47.216 23.8361 46.1136 24.7849 44.7104C25.7337 43.3206 26.2081 41.7237 26.2081 39.9197C26.2081 38.8773 26.0344 37.9152 25.6869 37.0332C25.3395 36.1512 24.8116 35.3427 24.1034 34.6077C23.3817 33.8861 22.4797 33.2313 21.3973 32.6433C20.3015 32.0687 19.0186 31.5542 17.5486 31.0999L12.8982 29.6566C11.1209 29.1087 9.5841 28.494 8.28785 27.8125C6.99161 27.1309 5.92254 26.3625 5.08065 25.5073C4.22539 24.6654 3.59064 23.7233 3.17637 22.6809C2.76211 21.652 2.55498 20.5027 2.55498 19.2332C2.55498 17.0951 3.10287 15.1908 4.19867 13.5204C5.29446 11.85 6.82457 10.5404 8.78898 9.59156C10.7534 8.64277 13.0318 8.16836 15.6243 8.16836C18.1233 8.16836 20.3082 8.60268 22.179 9.47129C24.0499 10.3533 25.5332 11.5627 26.629 13.0994C27.7115 14.6496 28.3195 16.4269 28.4531 18.4314L27.1702 18.4314C27.0366 16.6674 26.482 15.1106 25.5065 13.7609C24.531 12.4112 23.208 11.3555 21.5376 10.5938C19.8538 9.8321 17.8827 9.45125 15.6243 9.45125C13.2724 9.45125 11.2144 9.85882 9.45046 10.674C7.67314 11.5025 6.29672 12.6518 5.32119 14.1217C4.33231 15.5917 3.83786 17.2955 3.83786 19.2332C3.83786 20.7032 4.15858 21.9927 4.80002 23.1019C5.44146 24.2244 6.45039 25.2133 7.82682 26.0686C9.20324 26.9238 11.0006 27.6922 13.2189 28.3737L17.8694 29.817C21.0899 30.8326 23.502 32.1756 25.1056 33.846C26.6958 35.5164 27.491 37.541 27.491 39.9197C27.491 41.9375 26.9631 43.7416 25.9074 45.3318C24.8517 46.9354 23.4085 48.1982 21.5777 49.1203C19.7335 50.0424 17.6422 50.5034 15.3036 50.5034C12.9517 50.5034 10.887 50.0357 9.1097 49.1003C7.33237 48.1648 5.92254 46.8753 4.8802 45.2316C3.83786 43.5879 3.24987 41.7103 3.11624 39.5989L4.39912 39.5989Z" fill="black" fill-opacity="0.25"/>
<path d="M4.56163 39.5873C4.55554 39.5021 4.48459 39.436 4.39912 39.436L3.11624 39.436C3.07124 39.436 3.02825 39.4546 2.99745 39.4874C2.96666 39.5202 2.9508 39.5643 2.95364 39.6092C3.08885 41.7455 3.68434 43.65 4.74261 45.3188C5.8007 46.9874 7.23214 48.2962 9.03382 49.2444C10.8382 50.1941 12.9297 50.6663 15.3036 50.6663C17.6641 50.6663 19.7809 50.2009 21.6505 49.266L21.651 49.2658C23.5053 48.3319 24.9709 47.0506 26.0433 45.4217C27.1177 43.8032 27.6539 41.9675 27.6539 39.9197C27.6539 37.5006 26.8437 35.4354 25.2236 33.7337L25.2231 33.7332C23.5939 32.0361 21.1539 30.6819 17.9184 29.6616L17.9177 29.6614L13.2672 28.2181L13.2668 28.218C11.0566 27.539 9.27341 26.7756 7.9128 25.9302C6.55364 25.0856 5.56651 24.1149 4.94148 23.0211L4.94106 23.0203C4.31595 21.9394 4.00078 20.6788 4.00078 19.2332C4.00078 17.3248 4.48726 15.6532 5.45637 14.2127L5.45694 14.2118C6.41401 12.7697 7.76585 11.6391 9.51894 10.8218C11.2574 10.0185 13.2912 9.61417 15.6243 9.61417C17.8645 9.61417 19.8118 9.99193 21.4703 10.7422C23.1176 11.4934 24.4172 12.5319 25.3745 13.8564C26.3313 15.1801 26.8763 16.7078 27.0078 18.4437C27.0142 18.5287 27.085 18.5943 27.1702 18.5943L28.4531 18.5943C28.4982 18.5943 28.5413 18.5756 28.5721 18.5427C28.6029 18.5098 28.6187 18.4656 28.6157 18.4206C28.4802 16.3884 27.8631 14.5822 26.7626 13.0062L26.7617 13.0049C25.6482 11.4432 24.1421 10.2166 22.2485 9.32392L22.2476 9.32352C20.3512 8.44304 18.142 8.00544 15.6243 8.00544C13.0119 8.00544 10.7084 8.48356 8.71812 9.44486C6.72965 10.4053 5.1759 11.7337 4.06244 13.431C2.94799 15.1299 2.39206 17.0657 2.39206 19.2332C2.39206 20.5205 2.60211 21.6907 3.02514 22.7415C3.44818 23.8058 4.09579 24.7662 4.96544 25.6225C5.82126 26.4917 6.90451 27.2692 8.21203 27.9567C9.51918 28.6439 11.0657 29.2622 12.8502 29.8123L17.5004 31.2555L17.5005 31.2555C18.9627 31.7074 20.2356 32.2182 21.3206 32.787C22.391 33.3686 23.2789 34.014 23.9871 34.7219C24.6812 35.4424 25.1965 36.2327 25.5353 37.0929C25.8746 37.954 26.0452 38.8957 26.0452 39.9197C26.0452 41.6934 25.5793 43.2578 24.6503 44.6186L24.6499 44.6192C23.7184 45.9968 22.4449 47.0811 20.8247 47.8714C19.2062 48.6609 17.367 49.0576 15.3036 49.0576C12.1555 49.0576 9.63905 48.1657 7.73738 46.3952L7.73697 46.3948C5.81823 44.6207 4.75932 42.355 4.56163 39.5873Z" stroke="black" stroke-opacity="0.25" stroke-width="0.325843" stroke-linejoin="round"/>
<path d="M14.5682 0.999999L14.5682 20.9623L29.2227 26.4667L0.99929 34.6408L14.5682 38.144L14.5682 59" stroke="black" stroke-opacity="0.25" stroke-width="1.62921" stroke-linecap="round" stroke-linejoin="round"/>
</svg>
